<?xml version="1.0" standalone="no"?>
<!DOCTYPE svg PUBLIC "-//W3C//DTD SVG 20010904//EN"
 "http://www.w3.org/TR/2001/REC-SVG-20010904/DTD/svg10.dtd">
<svg version="1.0" xmlns="http://www.w3.org/2000/svg"
 width="700.000000pt" height="700.000000pt" viewBox="0 0 700.000000 700.000000"
 preserveAspectRatio="xMidYMid meet">
<metadata>
Created by potrace 1.14, written by Peter Selinger 2001-2017
</metadata>
<g transform="translate(0.000000,700.000000) scale(0.100000,-0.100000)"
fill="#000000" stroke="none">
<path d="M4684 5321 c-143 -39 -324 -147 -465 -279 -70 -66 -118 -120 -208
-234 -4 -4 -6 46 -6 110 0 108 -2 121 -28 174 -47 97 -140 152 -273 165 -126
12 -217 -35 -291 -148 -108 -167 -165 -380 -205 -769 -18 -171 -18 -1240 0
-1470 40 -512 127 -835 276 -1021 65 -82 134 -114 241 -113 110 2 180 30 251
99 67 66 121 174 137 275 13 87 -3 405 -33 645 -12 93 -23 256 -26 390 -6 210
-4 240 16 345 39 204 120 419 199 528 63 85 147 108 194 52 47 -55 70 -141 98
-355 6 -44 14 -384 19 -755 9 -712 11 -754 61 -945 26 -100 85 -229 129 -278
44 -51 102 -79 175 -84 264 -21 417 400 480 1322 27 401 63 668 109 830 66
225 139 339 237 365 83 23 127 -24 154 -165 20 -101 20 -486 0 -820 -17 -298
-19 -743 -4 -887 31 -288 126 -485 251 -519 84 -22 208 9 272 69 65 62 144
201 190 334 91 265 129 594 141 1218 10 566 -26 1006 -110 1331 -73 281 -219
503 -358 544 -142 42 -354 -16 -528 -146 -96 -71 -217 -202 -299 -325 -38 -58
-72 -99 -74 -92 -2 7 -14 47 -26 88 -66 227 -221 434 -380 508 -75 35 -213 41
-316 13z"/>
<path d="M1365 5299 c-339 -47 -683 -222 -865 -442 -106 -128 -155 -255 -154
-402 1 -100 26 -157 95 -219 62 -55 127 -78 223 -78 122 1 175 22 384 154 199
126 312 167 458 168 173 0 309 -87 359 -231 35 -97 41 -275 11 -284 -6 -1 -65
-13 -131 -25 -656 -121 -1247 -471 -1429 -845 -59 -121 -80 -213 -79 -350 2
-223 94 -441 265 -621 129 -136 281 -232 423 -269 79 -21 272 -21 390 0 198
35 429 135 598 260 48 36 89 65 92 65 3 0 5 -19 5 -42 1 -163 100 -332 233
-398 90 -44 203 -59 290 -37 116 28 184 93 251 238 66 142 92 287 107 579 20
375 -2 869 -52 1209 -69 475 -207 897 -364 1116 -117 163 -323 314 -533 389
-163 58 -419 87 -577 65z m569 -2071 c3 -40 8 -132 11 -204 l6 -131 -128 -65
c-168 -86 -241 -114 -338 -128 -108 -17 -185 -2 -232 45 -29 29 -33 39 -33 87
1 70 27 125 92 194 136 144 398 272 560 273 l56 1 6 -72z"/>
</g>
</svg>
